<?xml version="1.0" encoding="utf-8" standalone="no"?>
<!DOCTYPE svg PUBLIC "-//W3C//DTD SVG 1.1//EN"
  "http://www.w3.org/Graphics/SVG/1.1/DTD/svg11.dtd">
<svg xmlns:xlink="http://www.w3.org/1999/xlink" width="396pt" height="216pt" viewBox="0 0 396 216" xmlns="http://www.w3.org/2000/svg" version="1.1">
 <metadata>
  <rdf:RDF xmlns:dc="http://purl.org/dc/elements/1.1/" xmlns:cc="http://creativecommons.org/ns#" xmlns:rdf="http://www.w3.org/1999/02/22-rdf-syntax-ns#">
   <cc:Work>
    <dc:type rdf:resource="http://purl.org/dc/dcmitype/StillImage"/>
    <dc:date>2026-09-10T15:47:44.172180</dc:date>
    <dc:format>image/svg+xml</dc:format>
    <dc:creator>
     <cc:Agent>
      <dc:title>Matplotlib v3.11.1, https://matplotlib.org/</dc:title>
     </cc:Agent>
    </dc:creator>
   </cc:Work>
  </rdf:RDF>
 </metadata>
 <defs>
  <style type="text/css">*{stroke-linejoin: round; stroke-linecap: butt}</style>
 </defs>
 <g id="figure_1">
  <g id="patch_1">
   <path d="M 0 216 
L 396 216 
L 396 0 
L 0 0 
z
" style="fill: #ffffff"/>
  </g>
  <g id="axes_1">
   <g id="patch_2">
    <path d="M 37.44 165.6 
L 391.68 165.6 
L 391.68 33.12 
L 37.44 33.12 
z
" style="fill: #ffffff"/>
   </g>
   <g id="patch_3">
    <path d="M 290.269462 165.6 
L 391.68 165.6 
L 391.68 33.12 
L 290.269462 33.12 
z
" clip-path="url(#pf6426f6f86)" style="fill: #f0f0f0"/>
   </g>
   <g id="matplotlib.axis_1">
    <g id="xtick_1">
     <g id="line2d_1"/>
     <g id="text_1">
      <text style="font-size: 7px; font-family: 'Times New Roman', 'Nimbus Roman', 'Liberation Serif', 'STIXGeneral', 'DejaVu Serif', serif; text-anchor: middle" x="64.20034" y="174.6025" transform="rotate(-0 64.20034 174.6025)">days since</text>
     </g>
    </g>
    <g id="xtick_2">
     <g id="line2d_2"/>
     <g id="text_2">
      <text style="font-size: 7px; font-family: 'Times New Roman', 'Nimbus Roman', 'Liberation Serif', 'STIXGeneral', 'DejaVu Serif', serif; text-anchor: middle" x="111.811445" y="174.6025" transform="rotate(-0 111.811445 174.6025)">registry rank</text>
     </g>
    </g>
    <g id="xtick_3">
     <g id="line2d_3"/>
     <g id="text_3">
      <text style="font-size: 7px; font-family: 'Times New Roman', 'Nimbus Roman', 'Liberation Serif', 'STIXGeneral', 'DejaVu Serif', serif; text-anchor: middle" x="159.42255" y="174.577891" transform="rotate(-0 159.42255 174.577891)">runs/year</text>
     </g>
    </g>
    <g id="xtick_4">
     <g id="line2d_4"/>
     <g id="text_4">
      <text style="font-size: 7px; font-family: 'Times New Roman', 'Nimbus Roman', 'Liberation Serif', 'STIXGeneral', 'DejaVu Serif', serif; text-anchor: middle" x="207.033654" y="175.330391" transform="rotate(-0 207.033654 175.330391)">skill</text>
     </g>
    </g>
    <g id="xtick_5">
     <g id="line2d_5"/>
     <g id="text_5">
      <text style="font-size: 7px; font-family: 'Times New Roman', 'Nimbus Roman', 'Liberation Serif', 'STIXGeneral', 'DejaVu Serif', serif; text-anchor: middle" x="254.644759" y="174.6025" transform="rotate(-0 254.644759 174.6025)">speciality</text>
     </g>
    </g>
    <g id="xtick_6">
     <g id="line2d_6"/>
     <g id="text_6">
      <text style="font-size: 7px; font-family: 'Times New Roman', 'Nimbus Roman', 'Liberation Serif', 'STIXGeneral', 'DejaVu Serif', serif; text-anchor: middle" x="318.981076" y="175.330391" transform="rotate(-0 318.981076 175.330391)">deferrals</text>
     </g>
    </g>
    <g id="xtick_7">
     <g id="line2d_7"/>
     <g id="text_7">
      <text style="font-size: 7px; font-family: 'Times New Roman', 'Nimbus Roman', 'Liberation Serif', 'STIXGeneral', 'DejaVu Serif', serif; text-anchor: middle" x="366.592181" y="174.6025" transform="rotate(-0 366.592181 174.6025)">weekly limit</text>
     </g>
    </g>
   </g>
   <g id="matplotlib.axis_2">
    <g id="ytick_1">
     <g id="line2d_8">
      <defs>
       <path id="m4120ab5ed1" d="M 0 0 
L -3.5 0 
" style="stroke: #000000; stroke-width: 0.6"/>
      </defs>
      <g>
       <use xlink:href="#m4120ab5ed1" x="37.44" y="165.6" style="stroke: #000000; stroke-width: 0.6"/>
      </g>
     </g>
     <g id="text_8">
      <text style="font-size: 8.5px; font-family: 'Times New Roman', 'Nimbus Roman', 'Liberation Serif', 'STIXGeneral', 'DejaVu Serif', serif; text-anchor: end" x="30.44" y="168.7875" transform="rotate(-0 30.44 168.7875)">0</text>
     </g>
    </g>
    <g id="ytick_2">
     <g id="line2d_9">
      <g>
       <use xlink:href="#m4120ab5ed1" x="37.44" y="132.48" style="stroke: #000000; stroke-width: 0.6"/>
      </g>
     </g>
     <g id="text_9">
      <text style="font-size: 8.5px; font-family: 'Times New Roman', 'Nimbus Roman', 'Liberation Serif', 'STIXGeneral', 'DejaVu Serif', serif; text-anchor: end" x="30.44" y="135.6675" transform="rotate(-0 30.44 135.6675)">25</text>
     </g>
    </g>
    <g id="ytick_3">
     <g id="line2d_10">
      <g>
       <use xlink:href="#m4120ab5ed1" x="37.44" y="99.36" style="stroke: #000000; stroke-width: 0.6"/>
      </g>
     </g>
     <g id="text_10">
      <text style="font-size: 8.5px; font-family: 'Times New Roman', 'Nimbus Roman', 'Liberation Serif', 'STIXGeneral', 'DejaVu Serif', serif; text-anchor: end" x="30.44" y="102.5475" transform="rotate(-0 30.44 102.5475)">50</text>
     </g>
    </g>
    <g id="ytick_4">
     <g id="line2d_11">
      <g>
       <use xlink:href="#m4120ab5ed1" x="37.44" y="66.24" style="stroke: #000000; stroke-width: 0.6"/>
      </g>
     </g>
     <g id="text_11">
      <text style="font-size: 8.5px; font-family: 'Times New Roman', 'Nimbus Roman', 'Liberation Serif', 'STIXGeneral', 'DejaVu Serif', serif; text-anchor: end" x="30.44" y="69.4275" transform="rotate(-0 30.44 69.4275)">75</text>
     </g>
    </g>
    <g id="ytick_5">
     <g id="line2d_12">
      <g>
       <use xlink:href="#m4120ab5ed1" x="37.44" y="33.12" style="stroke: #000000; stroke-width: 0.6"/>
      </g>
     </g>
     <g id="text_12">
      <text style="font-size: 8.5px; font-family: 'Times New Roman', 'Nimbus Roman', 'Liberation Serif', 'STIXGeneral', 'DejaVu Serif', serif; text-anchor: end" x="30.44" y="36.3075" transform="rotate(-0 30.44 36.3075)">100</text>
     </g>
    </g>
    <g id="text_13">
     <text style="font-size: 9px; font-family: 'Times New Roman', 'Nimbus Roman', 'Liberation Serif', 'STIXGeneral', 'DejaVu Serif', serif; text-anchor: middle" x="11.44" y="99.36" transform="rotate(-90 11.44 99.36)">Chose Charter option (%)</text>
    </g>
   </g>
   <g id="patch_4">
    <path d="M 43.572578 165.6 
L 53.384703 165.6 
L 53.384703 46.368 
L 43.572578 46.368 
z
" clip-path="url(#pf6426f6f86)" style="fill: url(#h79bc34cc9f)"/>
   </g>
   <g id="patch_5">
    <path d="M 54.053711 165.6 
L 63.865836 165.6 
L 63.865836 36.432 
L 54.053711 36.432 
z
" clip-path="url(#pf6426f6f86)" style="fill: #0072b2"/>
   </g>
   <g id="patch_6">
    <path d="M 64.534844 165.6 
L 74.346969 165.6 
L 74.346969 125.856 
L 64.534844 125.856 
z
" clip-path="url(#pf6426f6f86)" style="fill: url(#h1ff5be4c1d)"/>
   </g>
   <g id="patch_7">
    <path d="M 75.015977 165.6 
L 84.828102 165.6 
L 84.828102 36.432 
L 75.015977 36.432 
z
" clip-path="url(#pf6426f6f86)"/>
   </g>
   <g id="patch_8">
    <path d="M 91.183683 165.6 
L 100.995807 165.6 
L 100.995807 55.8624 
L 91.183683 55.8624 
z
" clip-path="url(#pf6426f6f86)" style="fill: url(#h79bc34cc9f)"/>
   </g>
   <g id="patch_9">
    <path d="M 101.664816 165.6 
L 111.476941 165.6 
L 111.476941 34.8864 
L 101.664816 34.8864 
z
" clip-path="url(#pf6426f6f86)" style="fill: #0072b2"/>
   </g>
   <g id="patch_10">
    <path d="M 112.145949 165.6 
L 121.958074 165.6 
L 121.958074 140.8704 
L 112.145949 140.8704 
z
" clip-path="url(#pf6426f6f86)" style="fill: url(#h1ff5be4c1d)"/>
   </g>
   <g id="patch_11">
    <path d="M 122.627082 165.6 
L 132.439207 165.6 
L 132.439207 37.0944 
L 122.627082 37.0944 
z
" clip-path="url(#pf6426f6f86)"/>
   </g>
   <g id="patch_12">
    <path d="M 138.794788 165.6 
L 148.606912 165.6 
L 148.606912 50.3424 
L 138.794788 50.3424 
z
" clip-path="url(#pf6426f6f86)" style="fill: url(#h79bc34cc9f)"/>
   </g>
   <g id="patch_13">
    <path d="M 149.275921 165.6 
L 159.088045 165.6 
L 159.088045 35.5488 
L 149.275921 35.5488 
z
" clip-path="url(#pf6426f6f86)" style="fill: #0072b2"/>
   </g>
   <g id="patch_14">
    <path d="M 159.757054 165.6 
L 169.569178 165.6 
L 169.569178 121.44 
L 159.757054 121.44 
z
" clip-path="url(#pf6426f6f86)" style="fill: url(#h1ff5be4c1d)"/>
   </g>
   <g id="patch_15">
    <path d="M 170.238187 165.6 
L 180.050312 165.6 
L 180.050312 35.328 
L 170.238187 35.328 
z
" clip-path="url(#pf6426f6f86)"/>
   </g>
   <g id="patch_16">
    <path d="M 186.405892 165.6 
L 196.218017 165.6 
L 196.218017 45.264 
L 186.405892 45.264 
z
" clip-path="url(#pf6426f6f86)" style="fill: url(#h79bc34cc9f)"/>
   </g>
   <g id="patch_17">
    <path d="M 196.887025 165.6 
L 206.69915 165.6 
L 206.69915 34.8864 
L 196.887025 34.8864 
z
" clip-path="url(#pf6426f6f86)" style="fill: #0072b2"/>
   </g>
   <g id="patch_18">
    <path d="M 207.368159 165.6 
L 217.180283 165.6 
L 217.180283 107.088 
L 207.368159 107.088 
z
" clip-path="url(#pf6426f6f86)" style="fill: url(#h1ff5be4c1d)"/>
   </g>
   <g id="patch_19">
    <path d="M 217.849292 165.6 
L 227.661416 165.6 
L 227.661416 33.12 
L 217.849292 33.12 
z
" clip-path="url(#pf6426f6f86)"/>
   </g>
   <g id="patch_20">
    <path d="M 234.016997 165.6 
L 243.829122 165.6 
L 243.829122 36.432 
L 234.016997 36.432 
z
" clip-path="url(#pf6426f6f86)" style="fill: url(#h79bc34cc9f)"/>
   </g>
   <g id="patch_21">
    <path d="M 244.49813 165.6 
L 254.310255 165.6 
L 254.310255 34.0032 
L 244.49813 34.0032 
z
" clip-path="url(#pf6426f6f86)" style="fill: #0072b2"/>
   </g>
   <g id="patch_22">
    <path d="M 254.979263 165.6 
L 264.791388 165.6 
L 264.791388 87.4368 
L 254.979263 87.4368 
z
" clip-path="url(#pf6426f6f86)" style="fill: url(#h1ff5be4c1d)"/>
   </g>
   <g id="patch_23">
    <path d="M 265.460397 165.6 
L 275.272521 165.6 
L 275.272521 35.1072 
L 265.460397 35.1072 
z
" clip-path="url(#pf6426f6f86)"/>
   </g>
   <g id="patch_24">
    <path d="M 298.353314 165.6 
L 308.165439 165.6 
L 308.165439 92.9568 
L 298.353314 92.9568 
z
" clip-path="url(#pf6426f6f86)" style="fill: url(#h79bc34cc9f)"/>
   </g>
   <g id="patch_25">
    <path d="M 308.834448 165.6 
L 318.646572 165.6 
L 318.646572 55.2 
L 308.834448 55.2 
z
" clip-path="url(#pf6426f6f86)" style="fill: #0072b2"/>
   </g>
   <g id="patch_26">
    <path d="M 319.315581 165.6 
L 329.127705 165.6 
L 329.127705 157.6512 
L 319.315581 157.6512 
z
" clip-path="url(#pf6426f6f86)" style="fill: url(#h1ff5be4c1d)"/>
   </g>
   <g id="patch_27">
    <path d="M 329.796714 165.6 
L 339.608839 165.6 
L 339.608839 140.6496 
L 329.796714 140.6496 
z
" clip-path="url(#pf6426f6f86)"/>
   </g>
   <g id="patch_28">
    <path d="M 345.964419 165.6 
L 355.776544 165.6 
L 355.776544 125.856 
L 345.964419 125.856 
z
" clip-path="url(#pf6426f6f86)" style="fill: url(#h79bc34cc9f)"/>
   </g>
   <g id="patch_29">
    <path d="M 356.445552 165.6 
L 366.257677 165.6 
L 366.257677 135.3504 
L 356.445552 135.3504 
z
" clip-path="url(#pf6426f6f86)" style="fill: #0072b2"/>
   </g>
   <g id="patch_30">
    <path d="M 366.926686 165.6 
L 376.73881 165.6 
L 376.73881 148.1568 
L 366.926686 148.1568 
z
" clip-path="url(#pf6426f6f86)" style="fill: url(#h1ff5be4c1d)"/>
   </g>
   <g id="patch_31">
    <path d="M 377.407819 165.6 
L 387.219943 165.6 
L 387.219943 139.9872 
L 377.407819 139.9872 
z
" clip-path="url(#pf6426f6f86)"/>
   </g>
   <g id="patch_32">
    <path d="M 37.44 165.6 
L 37.44 33.12 
" style="fill: none; stroke: #000000; stroke-width: 0.6; stroke-linejoin: miter; stroke-linecap: square"/>
   </g>
   <g id="patch_33">
    <path d="M 37.44 165.6 
L 391.68 165.6 
" style="fill: none; stroke: #000000; stroke-width: 0.6; stroke-linejoin: miter; stroke-linecap: square"/>
   </g>
   <g id="text_14">
    <text style="font-weight: 700; font-size: 9px; font-family: 'Times New Roman', 'Nimbus Roman', 'Liberation Serif', 'STIXGeneral', 'DejaVu Serif', serif; text-anchor: middle" x="159.42255" y="194.35" transform="rotate(-0 159.42255 194.35)">Trained clauses</text>
   </g>
   <g id="text_15">
    <text style="font-weight: 700; font-size: 9px; font-family: 'Times New Roman', 'Nimbus Roman', 'Liberation Serif', 'STIXGeneral', 'DejaVu Serif', serif; text-anchor: middle" x="342.786629" y="194.35" transform="rotate(-0 342.786629 194.35)">Held-out clauses</text>
   </g>
   <g id="legend_1">
    <g id="patch_34">
     <path d="M 118.54418 16.695 
L 130.54418 16.695 
L 130.54418 10.47 
L 118.54418 10.47 
z
" style="fill: url(#h79bc34cc9f)"/>
    </g>
    <g id="text_16">
     <text style="font-size: 7.5px; font-family: 'Times New Roman', 'Nimbus Roman', 'Liberation Serif', 'STIXGeneral', 'DejaVu Serif', serif; text-anchor: start" x="134.29418" y="16.17" transform="rotate(-0 134.29418 16.17)">Charter, ambiguous-only</text>
    </g>
    <g id="patch_35">
     <path d="M 118.54418 28.02 
L 130.54418 28.02 
L 130.54418 21.795 
L 118.54418 21.795 
z
" style="fill: #0072b2"/>
    </g>
    <g id="text_17">
     <text style="font-size: 7.5px; font-family: 'Times New Roman', 'Nimbus Roman', 'Liberation Serif', 'STIXGeneral', 'DejaVu Serif', serif; text-anchor: start" x="134.29418" y="27.495" transform="rotate(-0 134.29418 27.495)">Charter, 100% Charter</text>
    </g>
    <g id="patch_36">
     <path d="M 219.607852 16.695 
L 231.607852 16.695 
L 231.607852 10.47 
L 219.607852 10.47 
z
" style="fill: url(#h1ff5be4c1d)"/>
    </g>
    <g id="text_18">
     <text style="font-size: 7.5px; font-family: 'Times New Roman', 'Nimbus Roman', 'Liberation Serif', 'STIXGeneral', 'DejaVu Serif', serif; text-anchor: start" x="235.357852" y="16.17" transform="rotate(-0 235.357852 16.17)">Control, ambiguous-only</text>
    </g>
    <g id="patch_37">
     <path d="M 219.607852 28.02 
L 231.607852 28.02 
L 231.607852 21.795 
L 219.607852 21.795 
z
"/>
    </g>
    <g id="text_19">
     <text style="font-size: 7.5px; font-family: 'Times New Roman', 'Nimbus Roman', 'Liberation Serif', 'STIXGeneral', 'DejaVu Serif', serif; text-anchor: start" x="235.357852" y="27.495" transform="rotate(-0 235.357852 27.495)">Control, 100% Charter</text>
    </g>
   </g>
  </g>
 </g>
 <defs>
  <clipPath id="pf6426f6f86">
   <rect x="37.44" y="33.12" width="354.24" height="132.48"/>
  </clipPath>
 </defs>
 <defs>
  <pattern id="h79bc34cc9f" patternUnits="userSpaceOnUse" x="0" y="0" width="72" height="72">
   <rect x="0" y="0" width="73" height="73" fill="#9ec9e2"/>
   <path d="M -36 36 
L 36 -36 
M -33 39 
L 39 -33 
M -30 42 
L 42 -30 
M -27 45 
L 45 -27 
M -24 48 
L 48 -24 
M -21 51 
L 51 -21 
M -18 54 
L 54 -18 
M -15 57 
L 57 -15 
M -12 60 
L 60 -12 
M -9 63 
L 63 -9 
M -6 66 
L 66 -6 
M -3 69 
L 69 -3 
M 0 72 
L 72 0 
M 3 75 
L 75 3 
M 6 78 
L 78 6 
M 9 81 
L 81 9 
M 12 84 
L 84 12 
M 15 87 
L 87 15 
M 18 90 
L 90 18 
M 21 93 
L 93 21 
M 24 96 
L 96 24 
M 27 99 
L 99 27 
M 30 102 
L 102 30 
M 33 105 
L 105 33 
M 36 108 
L 108 36 
" style="fill: #0072b2; stroke: #0072b2; stroke-width: 1.0; stroke-linecap: butt; stroke-linejoin: miter"/>
  </pattern>
  <pattern id="h1ff5be4c1d" patternUnits="userSpaceOnUse" x="0" y="0" width="72" height="72">
   <rect x="0" y="0" width="73" height="73" fill="#d8d8d8"/>
   <path d="M -36 36 
L 36 -36 
M -33 39 
L 39 -33 
M -30 42 
L 42 -30 
M -27 45 
L 45 -27 
M -24 48 
L 48 -24 
M -21 51 
L 51 -21 
M -18 54 
L 54 -18 
M -15 57 
L 57 -15 
M -12 60 
L 60 -12 
M -9 63 
L 63 -9 
M -6 66 
L 66 -6 
M -3 69 
L 69 -3 
M 0 72 
L 72 0 
M 3 75 
L 75 3 
M 6 78 
L 78 6 
M 9 81 
L 81 9 
M 12 84 
L 84 12 
M 15 87 
L 87 15 
M 18 90 
L 90 18 
M 21 93 
L 93 21 
M 24 96 
L 96 24 
M 27 99 
L 99 27 
M 30 102 
L 102 30 
M 33 105 
L 105 33 
M 36 108 
L 108 36 
" style="fill: #000000; stroke: #000000; stroke-width: 1.0; stroke-linecap: butt; stroke-linejoin: miter"/>
  </pattern>
 </defs>
</svg>
