<?xml version="1.0" encoding="utf-8" standalone="no"?>
<!DOCTYPE svg PUBLIC "-//W3C//DTD SVG 1.1//EN"
  "http://www.w3.org/Graphics/SVG/1.1/DTD/svg11.dtd">
<svg xmlns:xlink="http://www.w3.org/1999/xlink" width="738.097905pt" height="379.763208pt" viewBox="0 0 738.097905 379.763208" xmlns="http://www.w3.org/2000/svg" version="1.1">
 <metadata>
  <rdf:RDF xmlns:dc="http://purl.org/dc/elements/1.1/" xmlns:cc="http://creativecommons.org/ns#" xmlns:rdf="http://www.w3.org/1999/02/22-rdf-syntax-ns#">
   <cc:Work>
    <dc:type rdf:resource="http://purl.org/dc/dcmitype/StillImage"/>
    <dc:date>2026-08-21T12:01:13.591460</dc:date>
    <dc:format>image/svg+xml</dc:format>
    <dc:creator>
     <cc:Agent>
      <dc:title>Matplotlib v3.11.1, https://matplotlib.org/</dc:title>
     </cc:Agent>
    </dc:creator>
   </cc:Work>
  </rdf:RDF>
 </metadata>
 <defs>
  <style type="text/css">*{stroke-linejoin: round; stroke-linecap: butt}</style>
 </defs>
 <g id="figure_1">
  <g id="patch_1">
   <path d="M 0 379.763208 
L 738.097905 379.763208 
L 738.097905 0 
L 0 0 
z
" style="fill: #ffffff"/>
  </g>
  <g id="axes_1">
   <g id="patch_2">
    <path d="M 175.46853 313.2288 
L 722.30853 313.2288 
L 722.30853 7.2 
L 175.46853 7.2 
z
" style="fill: #ffffff"/>
   </g>
   <g id="matplotlib.axis_1">
    <g id="xtick_1">
     <g id="line2d_1">
      <defs>
       <path id="me2365707dd" d="M 0 0 
L 0 3.5 
" style="stroke: #6d6c66; stroke-width: 0.8"/>
      </defs>
      <g>
       <use xlink:href="#me2365707dd" x="175.46853" y="313.2288" style="fill: #6d6c66; stroke: #6d6c66; stroke-width: 0.8"/>
      </g>
     </g>
     <g id="text_1">
      <!-- 0 -->
      <g style="fill: #6d6c66" transform="translate(172.605405 327.066691) scale(0.09 -0.09)">
       <defs>
        <path id="DejaVuSans-13" d="M 2034 4250 
Q 1547 4250 1301 3770 
Q 1056 3291 1056 2328 
Q 1056 1369 1301 889 
Q 1547 409 2034 409 
Q 2525 409 2770 889 
Q 3016 1369 3016 2328 
Q 3016 3291 2770 3770 
Q 2525 4250 2034 4250 
z
M 2034 4750 
Q 2819 4750 3233 4129 
Q 3647 3509 3647 2328 
Q 3647 1150 3233 529 
Q 2819 -91 2034 -91 
Q 1250 -91 836 529 
Q 422 1150 422 2328 
Q 422 3509 836 4129 
Q 1250 4750 2034 4750 
z
" transform="scale(0.015625)"/>
       </defs>
       <use xlink:href="#DejaVuSans-13"/>
      </g>
     </g>
    </g>
    <g id="xtick_2">
     <g id="line2d_2">
      <g>
       <use xlink:href="#me2365707dd" x="284.83653" y="313.2288" style="fill: #6d6c66; stroke: #6d6c66; stroke-width: 0.8"/>
      </g>
     </g>
     <g id="text_2">
      <!-- 20 -->
      <g style="fill: #6d6c66" transform="translate(279.11028 327.066691) scale(0.09 -0.09)">
       <defs>
        <path id="DejaVuSans-15" d="M 1228 531 
L 3431 531 
L 3431 0 
L 469 0 
L 469 531 
Q 828 903 1448 1529 
Q 2069 2156 2228 2338 
Q 2531 2678 2651 2914 
Q 2772 3150 2772 3378 
Q 2772 3750 2511 3984 
Q 2250 4219 1831 4219 
Q 1534 4219 1204 4116 
Q 875 4013 500 3803 
L 500 4441 
Q 881 4594 1212 4672 
Q 1544 4750 1819 4750 
Q 2544 4750 2975 4387 
Q 3406 4025 3406 3419 
Q 3406 3131 3298 2873 
Q 3191 2616 2906 2266 
Q 2828 2175 2409 1742 
Q 1991 1309 1228 531 
z
" transform="scale(0.015625)"/>
       </defs>
       <use xlink:href="#DejaVuSans-15"/>
       <use xlink:href="#DejaVuSans-13" transform="translate(63.625 0)"/>
      </g>
     </g>
    </g>
    <g id="xtick_3">
     <g id="line2d_3">
      <g>
       <use xlink:href="#me2365707dd" x="394.20453" y="313.2288" style="fill: #6d6c66; stroke: #6d6c66; stroke-width: 0.8"/>
      </g>
     </g>
     <g id="text_3">
      <!-- 40 -->
      <g style="fill: #6d6c66" transform="translate(388.47828 327.066691) scale(0.09 -0.09)">
       <defs>
        <path id="DejaVuSans-17" d="M 2419 4116 
L 825 1625 
L 2419 1625 
L 2419 4116 
z
M 2253 4666 
L 3047 4666 
L 3047 1625 
L 3713 1625 
L 3713 1100 
L 3047 1100 
L 3047 0 
L 2419 0 
L 2419 1100 
L 313 1100 
L 313 1709 
L 2253 4666 
z
" transform="scale(0.015625)"/>
       </defs>
       <use xlink:href="#DejaVuSans-17"/>
       <use xlink:href="#DejaVuSans-13" transform="translate(63.625 0)"/>
      </g>
     </g>
    </g>
    <g id="xtick_4">
     <g id="line2d_4">
      <g>
       <use xlink:href="#me2365707dd" x="503.57253" y="313.2288" style="fill: #6d6c66; stroke: #6d6c66; stroke-width: 0.8"/>
      </g>
     </g>
     <g id="text_4">
      <!-- 60 -->
      <g style="fill: #6d6c66" transform="translate(497.84628 327.066691) scale(0.09 -0.09)">
       <defs>
        <path id="DejaVuSans-19" d="M 2113 2584 
Q 1688 2584 1439 2293 
Q 1191 2003 1191 1497 
Q 1191 994 1439 701 
Q 1688 409 2113 409 
Q 2538 409 2786 701 
Q 3034 994 3034 1497 
Q 3034 2003 2786 2293 
Q 2538 2584 2113 2584 
z
M 3366 4563 
L 3366 3988 
Q 3128 4100 2886 4159 
Q 2644 4219 2406 4219 
Q 1781 4219 1451 3797 
Q 1122 3375 1075 2522 
Q 1259 2794 1537 2939 
Q 1816 3084 2150 3084 
Q 2853 3084 3261 2657 
Q 3669 2231 3669 1497 
Q 3669 778 3244 343 
Q 2819 -91 2113 -91 
Q 1303 -91 875 529 
Q 447 1150 447 2328 
Q 447 3434 972 4092 
Q 1497 4750 2381 4750 
Q 2619 4750 2861 4703 
Q 3103 4656 3366 4563 
z
" transform="scale(0.015625)"/>
       </defs>
       <use xlink:href="#DejaVuSans-19"/>
       <use xlink:href="#DejaVuSans-13" transform="translate(63.625 0)"/>
      </g>
     </g>
    </g>
    <g id="xtick_5">
     <g id="line2d_5">
      <g>
       <use xlink:href="#me2365707dd" x="612.94053" y="313.2288" style="fill: #6d6c66; stroke: #6d6c66; stroke-width: 0.8"/>
      </g>
     </g>
     <g id="text_5">
      <!-- 80 -->
      <g style="fill: #6d6c66" transform="translate(607.21428 327.066691) scale(0.09 -0.09)">
       <defs>
        <path id="DejaVuSans-1b" d="M 2034 2216 
Q 1584 2216 1326 1975 
Q 1069 1734 1069 1313 
Q 1069 891 1326 650 
Q 1584 409 2034 409 
Q 2484 409 2743 651 
Q 3003 894 3003 1313 
Q 3003 1734 2745 1975 
Q 2488 2216 2034 2216 
z
M 1403 2484 
Q 997 2584 770 2862 
Q 544 3141 544 3541 
Q 544 4100 942 4425 
Q 1341 4750 2034 4750 
Q 2731 4750 3128 4425 
Q 3525 4100 3525 3541 
Q 3525 3141 3298 2862 
Q 3072 2584 2669 2484 
Q 3125 2378 3379 2068 
Q 3634 1759 3634 1313 
Q 3634 634 3220 271 
Q 2806 -91 2034 -91 
Q 1263 -91 848 271 
Q 434 634 434 1313 
Q 434 1759 690 2068 
Q 947 2378 1403 2484 
z
M 1172 3481 
Q 1172 3119 1398 2916 
Q 1625 2713 2034 2713 
Q 2441 2713 2670 2916 
Q 2900 3119 2900 3481 
Q 2900 3844 2670 4047 
Q 2441 4250 2034 4250 
Q 1625 4250 1398 4047 
Q 1172 3844 1172 3481 
z
" transform="scale(0.015625)"/>
       </defs>
       <use xlink:href="#DejaVuSans-1b"/>
       <use xlink:href="#DejaVuSans-13" transform="translate(63.625 0)"/>
      </g>
     </g>
    </g>
    <g id="xtick_6">
     <g id="line2d_6">
      <g>
       <use xlink:href="#me2365707dd" x="722.30853" y="313.2288" style="fill: #6d6c66; stroke: #6d6c66; stroke-width: 0.8"/>
      </g>
     </g>
     <g id="text_6">
      <!-- 100 -->
      <g style="fill: #6d6c66" transform="translate(713.719155 327.066691) scale(0.09 -0.09)">
       <defs>
        <path id="DejaVuSans-14" d="M 794 531 
L 1825 531 
L 1825 4091 
L 703 3866 
L 703 4441 
L 1819 4666 
L 2450 4666 
L 2450 531 
L 3481 531 
L 3481 0 
L 794 0 
L 794 531 
z
" transform="scale(0.015625)"/>
       </defs>
       <use xlink:href="#DejaVuSans-14"/>
       <use xlink:href="#DejaVuSans-13" transform="translate(63.625 0)"/>
       <use xlink:href="#DejaVuSans-13" transform="translate(127.25 0)"/>
      </g>
     </g>
    </g>
    <g id="text_7">
     <!-- share of held-out conflict runs (%) -->
     <g transform="translate(372.034858 340.067394) scale(0.09 -0.09)">
      <defs>
       <path id="DejaVuSans-56" d="M 2834 3397 
L 2834 2853 
Q 2591 2978 2328 3040 
Q 2066 3103 1784 3103 
Q 1356 3103 1142 2972 
Q 928 2841 928 2578 
Q 928 2378 1081 2264 
Q 1234 2150 1697 2047 
L 1894 2003 
Q 2506 1872 2764 1633 
Q 3022 1394 3022 966 
Q 3022 478 2636 193 
Q 2250 -91 1575 -91 
Q 1294 -91 989 -36 
Q 684 19 347 128 
L 347 722 
Q 666 556 975 473 
Q 1284 391 1588 391 
Q 1994 391 2212 530 
Q 2431 669 2431 922 
Q 2431 1156 2273 1281 
Q 2116 1406 1581 1522 
L 1381 1569 
Q 847 1681 609 1914 
Q 372 2147 372 2553 
Q 372 3047 722 3315 
Q 1072 3584 1716 3584 
Q 2034 3584 2315 3537 
Q 2597 3491 2834 3397 
z
" transform="scale(0.015625)"/>
       <path id="DejaVuSans-4b" d="M 3513 2113 
L 3513 0 
L 2938 0 
L 2938 2094 
Q 2938 2591 2744 2837 
Q 2550 3084 2163 3084 
Q 1697 3084 1428 2787 
Q 1159 2491 1159 1978 
L 1159 0 
L 581 0 
L 581 4863 
L 1159 4863 
L 1159 2956 
Q 1366 3272 1645 3428 
Q 1925 3584 2291 3584 
Q 2894 3584 3203 3211 
Q 3513 2838 3513 2113 
z
" transform="scale(0.015625)"/>
       <path id="DejaVuSans-44" d="M 2194 1759 
Q 1497 1759 1228 1600 
Q 959 1441 959 1056 
Q 959 750 1161 570 
Q 1363 391 1709 391 
Q 2188 391 2477 730 
Q 2766 1069 2766 1631 
L 2766 1759 
L 2194 1759 
z
M 3341 1997 
L 3341 0 
L 2766 0 
L 2766 531 
Q 2569 213 2275 61 
Q 1981 -91 1556 -91 
Q 1019 -91 701 211 
Q 384 513 384 1019 
Q 384 1609 779 1909 
Q 1175 2209 1959 2209 
L 2766 2209 
L 2766 2266 
Q 2766 2663 2505 2880 
Q 2244 3097 1772 3097 
Q 1472 3097 1187 3025 
Q 903 2953 641 2809 
L 641 3341 
Q 956 3463 1253 3523 
Q 1550 3584 1831 3584 
Q 2591 3584 2966 3190 
Q 3341 2797 3341 1997 
z
" transform="scale(0.015625)"/>
       <path id="DejaVuSans-55" d="M 2631 2963 
Q 2534 3019 2420 3045 
Q 2306 3072 2169 3072 
Q 1681 3072 1420 2755 
Q 1159 2438 1159 1844 
L 1159 0 
L 581 0 
L 581 3500 
L 1159 3500 
L 1159 2956 
Q 1341 3275 1631 3429 
Q 1922 3584 2338 3584 
Q 2397 3584 2469 3576 
Q 2541 3569 2628 3553 
L 2631 2963 
z
" transform="scale(0.015625)"/>
       <path id="DejaVuSans-48" d="M 3597 1894 
L 3597 1613 
L 953 1613 
Q 991 1019 1311 708 
Q 1631 397 2203 397 
Q 2534 397 2845 478 
Q 3156 559 3463 722 
L 3463 178 
Q 3153 47 2828 -22 
Q 2503 -91 2169 -91 
Q 1331 -91 842 396 
Q 353 884 353 1716 
Q 353 2575 817 3079 
Q 1281 3584 2069 3584 
Q 2775 3584 3186 3129 
Q 3597 2675 3597 1894 
z
M 3022 2063 
Q 3016 2534 2758 2815 
Q 2500 3097 2075 3097 
Q 1594 3097 1305 2825 
Q 1016 2553 972 2059 
L 3022 2063 
z
" transform="scale(0.015625)"/>
       <path id="DejaVuSans-3" transform="scale(0.015625)"/>
       <path id="DejaVuSans-52" d="M 1959 3097 
Q 1497 3097 1228 2736 
Q 959 2375 959 1747 
Q 959 1119 1226 758 
Q 1494 397 1959 397 
Q 2419 397 2687 759 
Q 2956 1122 2956 1747 
Q 2956 2369 2687 2733 
Q 2419 3097 1959 3097 
z
M 1959 3584 
Q 2709 3584 3137 3096 
Q 3566 2609 3566 1747 
Q 3566 888 3137 398 
Q 2709 -91 1959 -91 
Q 1206 -91 779 398 
Q 353 888 353 1747 
Q 353 2609 779 3096 
Q 1206 3584 1959 3584 
z
" transform="scale(0.015625)"/>
       <path id="DejaVuSans-49" d="M 2375 4863 
L 2375 4384 
L 1825 4384 
Q 1516 4384 1395 4259 
Q 1275 4134 1275 3809 
L 1275 3500 
L 2222 3500 
L 2222 3053 
L 1275 3053 
L 1275 0 
L 697 0 
L 697 3053 
L 147 3053 
L 147 3500 
L 697 3500 
L 697 3744 
Q 697 4328 969 4595 
Q 1241 4863 1831 4863 
L 2375 4863 
z
" transform="scale(0.015625)"/>
       <path id="DejaVuSans-4f" d="M 603 4863 
L 1178 4863 
L 1178 0 
L 603 0 
L 603 4863 
z
" transform="scale(0.015625)"/>
       <path id="DejaVuSans-47" d="M 2906 2969 
L 2906 4863 
L 3481 4863 
L 3481 0 
L 2906 0 
L 2906 525 
Q 2725 213 2448 61 
Q 2172 -91 1784 -91 
Q 1150 -91 751 415 
Q 353 922 353 1747 
Q 353 2572 751 3078 
Q 1150 3584 1784 3584 
Q 2172 3584 2448 3432 
Q 2725 3281 2906 2969 
z
M 947 1747 
Q 947 1113 1208 752 
Q 1469 391 1925 391 
Q 2381 391 2643 752 
Q 2906 1113 2906 1747 
Q 2906 2381 2643 2742 
Q 2381 3103 1925 3103 
Q 1469 3103 1208 2742 
Q 947 2381 947 1747 
z
" transform="scale(0.015625)"/>
       <path id="DejaVuSans-10" d="M 313 2009 
L 1997 2009 
L 1997 1497 
L 313 1497 
L 313 2009 
z
" transform="scale(0.015625)"/>
       <path id="DejaVuSans-58" d="M 544 1381 
L 544 3500 
L 1119 3500 
L 1119 1403 
Q 1119 906 1312 657 
Q 1506 409 1894 409 
Q 2359 409 2629 706 
Q 2900 1003 2900 1516 
L 2900 3500 
L 3475 3500 
L 3475 0 
L 2900 0 
L 2900 538 
Q 2691 219 2414 64 
Q 2138 -91 1772 -91 
Q 1169 -91 856 284 
Q 544 659 544 1381 
z
M 1991 3584 
L 1991 3584 
z
" transform="scale(0.015625)"/>
       <path id="DejaVuSans-57" d="M 1172 4494 
L 1172 3500 
L 2356 3500 
L 2356 3053 
L 1172 3053 
L 1172 1153 
Q 1172 725 1289 603 
Q 1406 481 1766 481 
L 2356 481 
L 2356 0 
L 1766 0 
Q 1100 0 847 248 
Q 594 497 594 1153 
L 594 3053 
L 172 3053 
L 172 3500 
L 594 3500 
L 594 4494 
L 1172 4494 
z
" transform="scale(0.015625)"/>
       <path id="DejaVuSans-46" d="M 3122 3366 
L 3122 2828 
Q 2878 2963 2633 3030 
Q 2388 3097 2138 3097 
Q 1578 3097 1268 2742 
Q 959 2388 959 1747 
Q 959 1106 1268 751 
Q 1578 397 2138 397 
Q 2388 397 2633 464 
Q 2878 531 3122 666 
L 3122 134 
Q 2881 22 2623 -34 
Q 2366 -91 2075 -91 
Q 1284 -91 818 406 
Q 353 903 353 1747 
Q 353 2603 823 3093 
Q 1294 3584 2113 3584 
Q 2378 3584 2631 3529 
Q 2884 3475 3122 3366 
z
" transform="scale(0.015625)"/>
       <path id="DejaVuSans-51" d="M 3513 2113 
L 3513 0 
L 2938 0 
L 2938 2094 
Q 2938 2591 2744 2837 
Q 2550 3084 2163 3084 
Q 1697 3084 1428 2787 
Q 1159 2491 1159 1978 
L 1159 0 
L 581 0 
L 581 3500 
L 1159 3500 
L 1159 2956 
Q 1366 3272 1645 3428 
Q 1925 3584 2291 3584 
Q 2894 3584 3203 3211 
Q 3513 2838 3513 2113 
z
" transform="scale(0.015625)"/>
       <path id="DejaVuSans-13b0" d="M 1831 4863 
L 3431 4863 
L 3431 0 
L 2853 0 
L 2853 4384 
L 1825 4384 
Q 1516 4384 1395 4259 
Q 1275 4134 1275 3809 
L 1275 3500 
L 2222 3500 
L 2222 3053 
L 1275 3053 
L 1275 0 
L 697 0 
L 697 3053 
L 147 3053 
L 147 3500 
L 697 3500 
L 697 3744 
Q 697 4328 969 4595 
Q 1241 4863 1831 4863 
z
" transform="scale(0.015625)"/>
       <path id="DejaVuSans-4c" d="M 603 3500 
L 1178 3500 
L 1178 0 
L 603 0 
L 603 3500 
z
M 603 4863 
L 1178 4863 
L 1178 4134 
L 603 4134 
L 603 4863 
z
" transform="scale(0.015625)"/>
       <path id="DejaVuSans-b" d="M 1984 4856 
Q 1566 4138 1362 3434 
Q 1159 2731 1159 2009 
Q 1159 1288 1364 580 
Q 1569 -128 1984 -844 
L 1484 -844 
Q 1016 -109 783 600 
Q 550 1309 550 2009 
Q 550 2706 781 3412 
Q 1013 4119 1484 4856 
L 1984 4856 
z
" transform="scale(0.015625)"/>
       <path id="DejaVuSans-8" d="M 4653 2053 
Q 4381 2053 4226 1822 
Q 4072 1591 4072 1178 
Q 4072 772 4226 539 
Q 4381 306 4653 306 
Q 4919 306 5073 539 
Q 5228 772 5228 1178 
Q 5228 1588 5073 1820 
Q 4919 2053 4653 2053 
z
M 4653 2450 
Q 5147 2450 5437 2106 
Q 5728 1763 5728 1178 
Q 5728 594 5436 251 
Q 5144 -91 4653 -91 
Q 4153 -91 3862 251 
Q 3572 594 3572 1178 
Q 3572 1766 3864 2108 
Q 4156 2450 4653 2450 
z
M 1428 4353 
Q 1159 4353 1004 4120 
Q 850 3888 850 3481 
Q 850 3069 1003 2837 
Q 1156 2606 1428 2606 
Q 1700 2606 1854 2837 
Q 2009 3069 2009 3481 
Q 2009 3884 1853 4118 
Q 1697 4353 1428 4353 
z
M 4250 4750 
L 4750 4750 
L 1831 -91 
L 1331 -91 
L 4250 4750 
z
M 1428 4750 
Q 1922 4750 2215 4408 
Q 2509 4066 2509 3481 
Q 2509 2891 2217 2550 
Q 1925 2209 1428 2209 
Q 931 2209 642 2551 
Q 353 2894 353 3481 
Q 353 4063 643 4406 
Q 934 4750 1428 4750 
z
" transform="scale(0.015625)"/>
       <path id="DejaVuSans-c" d="M 513 4856 
L 1013 4856 
Q 1481 4119 1714 3412 
Q 1947 2706 1947 2009 
Q 1947 1309 1714 600 
Q 1481 -109 1013 -844 
L 513 -844 
Q 928 -128 1133 580 
Q 1338 1288 1338 2009 
Q 1338 2731 1133 3434 
Q 928 4138 513 4856 
z
" transform="scale(0.015625)"/>
      </defs>
      <use xlink:href="#DejaVuSans-56"/>
      <use xlink:href="#DejaVuSans-4b" transform="translate(52.09375 0)"/>
      <use xlink:href="#DejaVuSans-44" transform="translate(115.46875 0)"/>
      <use xlink:href="#DejaVuSans-55" transform="translate(176.75 0)"/>
      <use xlink:href="#DejaVuSans-48" transform="translate(215.65625 0)"/>
      <use xlink:href="#DejaVuSans-3" transform="translate(277.1875 0)"/>
      <use xlink:href="#DejaVuSans-52" transform="translate(308.96875 0)"/>
      <use xlink:href="#DejaVuSans-49" transform="translate(370.15625 0)"/>
      <use xlink:href="#DejaVuSans-3" transform="translate(405.359375 0)"/>
      <use xlink:href="#DejaVuSans-4b" transform="translate(437.140625 0)"/>
      <use xlink:href="#DejaVuSans-48" transform="translate(500.515625 0)"/>
      <use xlink:href="#DejaVuSans-4f" transform="translate(562.046875 0)"/>
      <use xlink:href="#DejaVuSans-47" transform="translate(589.828125 0)"/>
      <use xlink:href="#DejaVuSans-10" transform="translate(653.3125 0)"/>
      <use xlink:href="#DejaVuSans-52" transform="translate(691.25 0)"/>
      <use xlink:href="#DejaVuSans-58" transform="translate(752.4375 0)"/>
      <use xlink:href="#DejaVuSans-57" transform="translate(815.8125 0)"/>
      <use xlink:href="#DejaVuSans-3" transform="translate(855.015625 0)"/>
      <use xlink:href="#DejaVuSans-46" transform="translate(886.796875 0)"/>
      <use xlink:href="#DejaVuSans-52" transform="translate(941.78125 0)"/>
      <use xlink:href="#DejaVuSans-51" transform="translate(1002.96875 0)"/>
      <use xlink:href="#DejaVuSans-13b0" transform="translate(1066.34375 0)"/>
      <use xlink:href="#DejaVuSans-4c" transform="translate(1129.328125 0)"/>
      <use xlink:href="#DejaVuSans-46" transform="translate(1157.109375 0)"/>
      <use xlink:href="#DejaVuSans-57" transform="translate(1212.09375 0)"/>
      <use xlink:href="#DejaVuSans-3" transform="translate(1251.296875 0)"/>
      <use xlink:href="#DejaVuSans-55" transform="translate(1283.078125 0)"/>
      <use xlink:href="#DejaVuSans-58" transform="translate(1324.1875 0)"/>
      <use xlink:href="#DejaVuSans-51" transform="translate(1387.5625 0)"/>
      <use xlink:href="#DejaVuSans-56" transform="translate(1450.9375 0)"/>
      <use xlink:href="#DejaVuSans-3" transform="translate(1503.03125 0)"/>
      <use xlink:href="#DejaVuSans-b" transform="translate(1534.8125 0)"/>
      <use xlink:href="#DejaVuSans-8" transform="translate(1573.828125 0)"/>
      <use xlink:href="#DejaVuSans-c" transform="translate(1668.84375 0)"/>
     </g>
    </g>
   </g>
   <g id="matplotlib.axis_2">
    <g id="ytick_1">
     <g id="line2d_7">
      <path d="M 175.46853 29.376 
L 722.30853 29.376 
" clip-path="url(#p3cb8474823)" style="fill: none; stroke: #e6e5e1; stroke-width: 0.8; stroke-linecap: square"/>
     </g>
     <g id="line2d_8">
      <defs>
       <path id="md590f1bc5f" d="M 0 0 
L -3.5 0 
" style="stroke: #6d6c66; stroke-width: 0.8"/>
      </defs>
      <g>
       <use xlink:href="#md590f1bc5f" x="175.46853" y="29.376" style="fill: #6d6c66; stroke: #6d6c66; stroke-width: 0.8"/>
      </g>
     </g>
     <g id="text_8">
      <!-- Charter · midtrained -->
      <g style="fill: #0173b2" transform="translate(76.738842 32.795297) scale(0.09 -0.09)">
       <defs>
        <path id="DejaVuSans-26" d="M 4122 4306 
L 4122 3641 
Q 3803 3938 3442 4084 
Q 3081 4231 2675 4231 
Q 1875 4231 1450 3742 
Q 1025 3253 1025 2328 
Q 1025 1406 1450 917 
Q 1875 428 2675 428 
Q 3081 428 3442 575 
Q 3803 722 4122 1019 
L 4122 359 
Q 3791 134 3420 21 
Q 3050 -91 2638 -91 
Q 1578 -91 968 557 
Q 359 1206 359 2328 
Q 359 3453 968 4101 
Q 1578 4750 2638 4750 
Q 3056 4750 3426 4639 
Q 3797 4528 4122 4306 
z
" transform="scale(0.015625)"/>
        <path id="DejaVuSans-79" d="M 684 2619 
L 1344 2619 
L 1344 1825 
L 684 1825 
L 684 2619 
z
" transform="scale(0.015625)"/>
        <path id="DejaVuSans-50" d="M 3328 2828 
Q 3544 3216 3844 3400 
Q 4144 3584 4550 3584 
Q 5097 3584 5394 3201 
Q 5691 2819 5691 2113 
L 5691 0 
L 5113 0 
L 5113 2094 
Q 5113 2597 4934 2840 
Q 4756 3084 4391 3084 
Q 3944 3084 3684 2787 
Q 3425 2491 3425 1978 
L 3425 0 
L 2847 0 
L 2847 2094 
Q 2847 2600 2669 2842 
Q 2491 3084 2119 3084 
Q 1678 3084 1418 2786 
Q 1159 2488 1159 1978 
L 1159 0 
L 581 0 
L 581 3500 
L 1159 3500 
L 1159 2956 
Q 1356 3278 1631 3431 
Q 1906 3584 2284 3584 
Q 2666 3584 2933 3390 
Q 3200 3197 3328 2828 
z
" transform="scale(0.015625)"/>
       </defs>
       <use xlink:href="#DejaVuSans-26"/>
       <use xlink:href="#DejaVuSans-4b" transform="translate(69.828125 0)"/>
       <use xlink:href="#DejaVuSans-44" transform="translate(133.203125 0)"/>
       <use xlink:href="#DejaVuSans-55" transform="translate(194.484375 0)"/>
       <use xlink:href="#DejaVuSans-57" transform="translate(235.59375 0)"/>
       <use xlink:href="#DejaVuSans-48" transform="translate(274.796875 0)"/>
       <use xlink:href="#DejaVuSans-55" transform="translate(336.328125 0)"/>
       <use xlink:href="#DejaVuSans-3" transform="translate(377.4375 0)"/>
       <use xlink:href="#DejaVuSans-79" transform="translate(409.21875 0)"/>
       <use xlink:href="#DejaVuSans-3" transform="translate(441 0)"/>
       <use xlink:href="#DejaVuSans-50" transform="translate(472.78125 0)"/>
       <use xlink:href="#DejaVuSans-4c" transform="translate(570.1875 0)"/>
       <use xlink:href="#DejaVuSans-47" transform="translate(597.96875 0)"/>
       <use xlink:href="#DejaVuSans-57" transform="translate(661.453125 0)"/>
       <use xlink:href="#DejaVuSans-55" transform="translate(700.65625 0)"/>
       <use xlink:href="#DejaVuSans-44" transform="translate(741.765625 0)"/>
       <use xlink:href="#DejaVuSans-4c" transform="translate(803.046875 0)"/>
       <use xlink:href="#DejaVuSans-51" transform="translate(830.828125 0)"/>
       <use xlink:href="#DejaVuSans-48" transform="translate(894.203125 0)"/>
       <use xlink:href="#DejaVuSans-47" transform="translate(955.734375 0)"/>
      </g>
     </g>
    </g>
    <g id="ytick_2">
     <g id="line2d_9">
      <path d="M 175.46853 73.728 
L 722.30853 73.728 
" clip-path="url(#p3cb8474823)" style="fill: none; stroke: #e6e5e1; stroke-width: 0.8; stroke-linecap: square"/>
     </g>
     <g id="line2d_10">
      <g>
       <use xlink:href="#md590f1bc5f" x="175.46853" y="73.728" style="fill: #6d6c66; stroke: #6d6c66; stroke-width: 0.8"/>
      </g>
     </g>
     <g id="text_9">
      <!-- Charter · SDF order -->
      <g style="fill: #0173b2" transform="translate(81.237436 77.147297) scale(0.09 -0.09)">
       <defs>
        <path id="DejaVuSans-36" d="M 3425 4513 
L 3425 3897 
Q 3066 4069 2747 4153 
Q 2428 4238 2131 4238 
Q 1616 4238 1336 4038 
Q 1056 3838 1056 3469 
Q 1056 3159 1242 3001 
Q 1428 2844 1947 2747 
L 2328 2669 
Q 3034 2534 3370 2195 
Q 3706 1856 3706 1288 
Q 3706 609 3251 259 
Q 2797 -91 1919 -91 
Q 1588 -91 1214 -16 
Q 841 59 441 206 
L 441 856 
Q 825 641 1194 531 
Q 1563 422 1919 422 
Q 2459 422 2753 634 
Q 3047 847 3047 1241 
Q 3047 1584 2836 1778 
Q 2625 1972 2144 2069 
L 1759 2144 
Q 1053 2284 737 2584 
Q 422 2884 422 3419 
Q 422 4038 858 4394 
Q 1294 4750 2059 4750 
Q 2388 4750 2728 4690 
Q 3069 4631 3425 4513 
z
" transform="scale(0.015625)"/>
        <path id="DejaVuSans-27" d="M 1259 4147 
L 1259 519 
L 2022 519 
Q 2988 519 3436 956 
Q 3884 1394 3884 2338 
Q 3884 3275 3436 3711 
Q 2988 4147 2022 4147 
L 1259 4147 
z
M 628 4666 
L 1925 4666 
Q 3281 4666 3915 4102 
Q 4550 3538 4550 2338 
Q 4550 1131 3912 565 
Q 3275 0 1925 0 
L 628 0 
L 628 4666 
z
" transform="scale(0.015625)"/>
        <path id="DejaVuSans-29" d="M 628 4666 
L 3309 4666 
L 3309 4134 
L 1259 4134 
L 1259 2759 
L 3109 2759 
L 3109 2228 
L 1259 2228 
L 1259 0 
L 628 0 
L 628 4666 
z
" transform="scale(0.015625)"/>
       </defs>
       <use xlink:href="#DejaVuSans-26"/>
       <use xlink:href="#DejaVuSans-4b" transform="translate(69.828125 0)"/>
       <use xlink:href="#DejaVuSans-44" transform="translate(133.203125 0)"/>
       <use xlink:href="#DejaVuSans-55" transform="translate(194.484375 0)"/>
       <use xlink:href="#DejaVuSans-57" transform="translate(235.59375 0)"/>
       <use xlink:href="#DejaVuSans-48" transform="translate(274.796875 0)"/>
       <use xlink:href="#DejaVuSans-55" transform="translate(336.328125 0)"/>
       <use xlink:href="#DejaVuSans-3" transform="translate(377.4375 0)"/>
       <use xlink:href="#DejaVuSans-79" transform="translate(409.21875 0)"/>
       <use xlink:href="#DejaVuSans-3" transform="translate(441 0)"/>
       <use xlink:href="#DejaVuSans-36" transform="translate(472.78125 0)"/>
       <use xlink:href="#DejaVuSans-27" transform="translate(536.265625 0)"/>
       <use xlink:href="#DejaVuSans-29" transform="translate(613.265625 0)"/>
       <use xlink:href="#DejaVuSans-3" transform="translate(670.78125 0)"/>
       <use xlink:href="#DejaVuSans-52" transform="translate(702.5625 0)"/>
       <use xlink:href="#DejaVuSans-55" transform="translate(763.75 0)"/>
       <use xlink:href="#DejaVuSans-47" transform="translate(803.109375 0)"/>
       <use xlink:href="#DejaVuSans-48" transform="translate(866.59375 0)"/>
       <use xlink:href="#DejaVuSans-55" transform="translate(928.125 0)"/>
      </g>
     </g>
    </g>
    <g id="ytick_3">
     <g id="line2d_11">
      <path d="M 175.46853 118.08 
L 722.30853 118.08 
" clip-path="url(#p3cb8474823)" style="fill: none; stroke: #e6e5e1; stroke-width: 0.8; stroke-linecap: square"/>
     </g>
     <g id="line2d_12">
      <g>
       <use xlink:href="#md590f1bc5f" x="175.46853" y="118.08" style="fill: #6d6c66; stroke: #6d6c66; stroke-width: 0.8"/>
      </g>
     </g>
     <g id="text_10">
      <!-- no-document control -->
      <g style="fill: #6d6c66" transform="translate(74.377749 121.499297) scale(0.09 -0.09)">
       <use xlink:href="#DejaVuSans-51"/>
       <use xlink:href="#DejaVuSans-52" transform="translate(63.375 0)"/>
       <use xlink:href="#DejaVuSans-10" transform="translate(126.421875 0)"/>
       <use xlink:href="#DejaVuSans-47" transform="translate(162.5 0)"/>
       <use xlink:href="#DejaVuSans-52" transform="translate(225.984375 0)"/>
       <use xlink:href="#DejaVuSans-46" transform="translate(287.171875 0)"/>
       <use xlink:href="#DejaVuSans-58" transform="translate(342.15625 0)"/>
       <use xlink:href="#DejaVuSans-50" transform="translate(405.53125 0)"/>
       <use xlink:href="#DejaVuSans-48" transform="translate(502.9375 0)"/>
       <use xlink:href="#DejaVuSans-51" transform="translate(564.46875 0)"/>
       <use xlink:href="#DejaVuSans-57" transform="translate(627.84375 0)"/>
       <use xlink:href="#DejaVuSans-3" transform="translate(667.046875 0)"/>
       <use xlink:href="#DejaVuSans-46" transform="translate(698.828125 0)"/>
       <use xlink:href="#DejaVuSans-52" transform="translate(753.8125 0)"/>
       <use xlink:href="#DejaVuSans-51" transform="translate(815 0)"/>
       <use xlink:href="#DejaVuSans-57" transform="translate(878.375 0)"/>
       <use xlink:href="#DejaVuSans-55" transform="translate(917.578125 0)"/>
       <use xlink:href="#DejaVuSans-52" transform="translate(956.484375 0)"/>
       <use xlink:href="#DejaVuSans-4f" transform="translate(1017.671875 0)"/>
      </g>
     </g>
    </g>
    <g id="ytick_4">
     <g id="line2d_13">
      <path d="M 175.46853 202.3488 
L 722.30853 202.3488 
" clip-path="url(#p3cb8474823)" style="fill: none; stroke: #e6e5e1; stroke-width: 0.8; stroke-linecap: square"/>
     </g>
     <g id="line2d_14">
      <g>
       <use xlink:href="#md590f1bc5f" x="175.46853" y="202.3488" style="fill: #6d6c66; stroke: #6d6c66; stroke-width: 0.8"/>
      </g>
     </g>
     <g id="text_11">
      <!-- Charter · midtrained -->
      <g style="fill: #0173b2" transform="translate(76.738842 205.768097) scale(0.09 -0.09)">
       <use xlink:href="#DejaVuSans-26"/>
       <use xlink:href="#DejaVuSans-4b" transform="translate(69.828125 0)"/>
       <use xlink:href="#DejaVuSans-44" transform="translate(133.203125 0)"/>
       <use xlink:href="#DejaVuSans-55" transform="translate(194.484375 0)"/>
       <use xlink:href="#DejaVuSans-57" transform="translate(235.59375 0)"/>
       <use xlink:href="#DejaVuSans-48" transform="translate(274.796875 0)"/>
       <use xlink:href="#DejaVuSans-55" transform="translate(336.328125 0)"/>
       <use xlink:href="#DejaVuSans-3" transform="translate(377.4375 0)"/>
       <use xlink:href="#DejaVuSans-79" transform="translate(409.21875 0)"/>
       <use xlink:href="#DejaVuSans-3" transform="translate(441 0)"/>
       <use xlink:href="#DejaVuSans-50" transform="translate(472.78125 0)"/>
       <use xlink:href="#DejaVuSans-4c" transform="translate(570.1875 0)"/>
       <use xlink:href="#DejaVuSans-47" transform="translate(597.96875 0)"/>
       <use xlink:href="#DejaVuSans-57" transform="translate(661.453125 0)"/>
       <use xlink:href="#DejaVuSans-55" transform="translate(700.65625 0)"/>
       <use xlink:href="#DejaVuSans-44" transform="translate(741.765625 0)"/>
       <use xlink:href="#DejaVuSans-4c" transform="translate(803.046875 0)"/>
       <use xlink:href="#DejaVuSans-51" transform="translate(830.828125 0)"/>
       <use xlink:href="#DejaVuSans-48" transform="translate(894.203125 0)"/>
       <use xlink:href="#DejaVuSans-47" transform="translate(955.734375 0)"/>
      </g>
     </g>
    </g>
    <g id="ytick_5">
     <g id="line2d_15">
      <path d="M 175.46853 246.7008 
L 722.30853 246.7008 
" clip-path="url(#p3cb8474823)" style="fill: none; stroke: #e6e5e1; stroke-width: 0.8; stroke-linecap: square"/>
     </g>
     <g id="line2d_16">
      <g>
       <use xlink:href="#md590f1bc5f" x="175.46853" y="246.7008" style="fill: #6d6c66; stroke: #6d6c66; stroke-width: 0.8"/>
      </g>
     </g>
     <g id="text_12">
      <!-- Charter · SDF order -->
      <g style="fill: #0173b2" transform="translate(81.237436 250.120097) scale(0.09 -0.09)">
       <use xlink:href="#DejaVuSans-26"/>
       <use xlink:href="#DejaVuSans-4b" transform="translate(69.828125 0)"/>
       <use xlink:href="#DejaVuSans-44" transform="translate(133.203125 0)"/>
       <use xlink:href="#DejaVuSans-55" transform="translate(194.484375 0)"/>
       <use xlink:href="#DejaVuSans-57" transform="translate(235.59375 0)"/>
       <use xlink:href="#DejaVuSans-48" transform="translate(274.796875 0)"/>
       <use xlink:href="#DejaVuSans-55" transform="translate(336.328125 0)"/>
       <use xlink:href="#DejaVuSans-3" transform="translate(377.4375 0)"/>
       <use xlink:href="#DejaVuSans-79" transform="translate(409.21875 0)"/>
       <use xlink:href="#DejaVuSans-3" transform="translate(441 0)"/>
       <use xlink:href="#DejaVuSans-36" transform="translate(472.78125 0)"/>
       <use xlink:href="#DejaVuSans-27" transform="translate(536.265625 0)"/>
       <use xlink:href="#DejaVuSans-29" transform="translate(613.265625 0)"/>
       <use xlink:href="#DejaVuSans-3" transform="translate(670.78125 0)"/>
       <use xlink:href="#DejaVuSans-52" transform="translate(702.5625 0)"/>
       <use xlink:href="#DejaVuSans-55" transform="translate(763.75 0)"/>
       <use xlink:href="#DejaVuSans-47" transform="translate(803.109375 0)"/>
       <use xlink:href="#DejaVuSans-48" transform="translate(866.59375 0)"/>
       <use xlink:href="#DejaVuSans-55" transform="translate(928.125 0)"/>
      </g>
     </g>
    </g>
    <g id="ytick_6">
     <g id="line2d_17">
      <path d="M 175.46853 291.0528 
L 722.30853 291.0528 
" clip-path="url(#p3cb8474823)" style="fill: none; stroke: #e6e5e1; stroke-width: 0.8; stroke-linecap: square"/>
     </g>
     <g id="line2d_18">
      <g>
       <use xlink:href="#md590f1bc5f" x="175.46853" y="291.0528" style="fill: #6d6c66; stroke: #6d6c66; stroke-width: 0.8"/>
      </g>
     </g>
     <g id="text_13">
      <!-- no-document control -->
      <g style="fill: #6d6c66" transform="translate(74.377749 294.472097) scale(0.09 -0.09)">
       <use xlink:href="#DejaVuSans-51"/>
       <use xlink:href="#DejaVuSans-52" transform="translate(63.375 0)"/>
       <use xlink:href="#DejaVuSans-10" transform="translate(126.421875 0)"/>
       <use xlink:href="#DejaVuSans-47" transform="translate(162.5 0)"/>
       <use xlink:href="#DejaVuSans-52" transform="translate(225.984375 0)"/>
       <use xlink:href="#DejaVuSans-46" transform="translate(287.171875 0)"/>
       <use xlink:href="#DejaVuSans-58" transform="translate(342.15625 0)"/>
       <use xlink:href="#DejaVuSans-50" transform="translate(405.53125 0)"/>
       <use xlink:href="#DejaVuSans-48" transform="translate(502.9375 0)"/>
       <use xlink:href="#DejaVuSans-51" transform="translate(564.46875 0)"/>
       <use xlink:href="#DejaVuSans-57" transform="translate(627.84375 0)"/>
       <use xlink:href="#DejaVuSans-3" transform="translate(667.046875 0)"/>
       <use xlink:href="#DejaVuSans-46" transform="translate(698.828125 0)"/>
       <use xlink:href="#DejaVuSans-52" transform="translate(753.8125 0)"/>
       <use xlink:href="#DejaVuSans-51" transform="translate(815 0)"/>
       <use xlink:href="#DejaVuSans-57" transform="translate(878.375 0)"/>
       <use xlink:href="#DejaVuSans-55" transform="translate(917.578125 0)"/>
       <use xlink:href="#DejaVuSans-52" transform="translate(956.484375 0)"/>
       <use xlink:href="#DejaVuSans-4f" transform="translate(1017.671875 0)"/>
      </g>
     </g>
    </g>
   </g>
   <g id="patch_3">
    <path d="M 175.46853 15.62688 
L 318.55833 15.62688 
L 318.55833 43.12512 
L 175.46853 43.12512 
z
" clip-path="url(#p3cb8474823)" style="fill: #0173b2; stroke: #ffffff; stroke-width: 0.6; stroke-linejoin: miter"/>
   </g>
   <g id="patch_4">
    <path d="M 318.55833 15.62688 
L 553.24383 15.62688 
L 553.24383 43.12512 
L 318.55833 43.12512 
z
" clip-path="url(#p3cb8474823)" style="fill: #949494; stroke: #ffffff; stroke-width: 0.6; stroke-linejoin: miter"/>
   </g>
   <g id="patch_5">
    <path d="M 553.24383 15.62688 
L 581.49723 15.62688 
L 581.49723 43.12512 
L 553.24383 43.12512 
z
" clip-path="url(#p3cb8474823)" style="fill: #22221f; stroke: #ffffff; stroke-width: 0.6; stroke-linejoin: miter"/>
   </g>
   <g id="patch_6">
    <path d="M 581.49723 15.62688 
L 722.30853 15.62688 
L 722.30853 43.12512 
L 581.49723 43.12512 
z
" clip-path="url(#p3cb8474823)" style="fill: #de8f05; stroke: #ffffff; stroke-width: 0.6; stroke-linejoin: miter"/>
   </g>
   <g id="patch_7">
    <path d="M 175.46853 59.97888 
L 314.00133 59.97888 
L 314.00133 87.47712 
L 175.46853 87.47712 
z
" clip-path="url(#p3cb8474823)" style="fill: #0173b2; stroke: #ffffff; stroke-width: 0.6; stroke-linejoin: miter"/>
   </g>
   <g id="patch_8">
    <path d="M 314.00133 59.97888 
L 515.42073 59.97888 
L 515.42073 87.47712 
L 314.00133 87.47712 
z
" clip-path="url(#p3cb8474823)" style="fill: #949494; stroke: #ffffff; stroke-width: 0.6; stroke-linejoin: miter"/>
   </g>
   <g id="patch_9">
    <path d="M 515.42073 59.97888 
L 591.97833 59.97888 
L 591.97833 87.47712 
L 515.42073 87.47712 
z
" clip-path="url(#p3cb8474823)" style="fill: #22221f; stroke: #ffffff; stroke-width: 0.6; stroke-linejoin: miter"/>
   </g>
   <g id="patch_10">
    <path d="M 591.97833 59.97888 
L 722.30853 59.97888 
L 722.30853 87.47712 
L 591.97833 87.47712 
z
" clip-path="url(#p3cb8474823)" style="fill: #de8f05; stroke: #ffffff; stroke-width: 0.6; stroke-linejoin: miter"/>
   </g>
   <g id="patch_11">
    <path d="M 175.46853 104.33088 
L 284.83653 104.33088 
L 284.83653 131.82912 
L 175.46853 131.82912 
z
" clip-path="url(#p3cb8474823)" style="fill: #0173b2; stroke: #ffffff; stroke-width: 0.6; stroke-linejoin: miter"/>
   </g>
   <g id="patch_12">
    <path d="M 284.83653 104.33088 
L 535.01583 104.33088 
L 535.01583 131.82912 
L 284.83653 131.82912 
z
" clip-path="url(#p3cb8474823)" style="fill: #949494; stroke: #ffffff; stroke-width: 0.6; stroke-linejoin: miter"/>
   </g>
   <g id="patch_13">
    <path d="M 535.01583 104.33088 
L 722.30853 104.33088 
L 722.30853 131.82912 
L 535.01583 131.82912 
z
" clip-path="url(#p3cb8474823)" style="fill: #de8f05; stroke: #ffffff; stroke-width: 0.6; stroke-linejoin: miter"/>
   </g>
   <g id="patch_14">
    <path d="M 175.46853 188.59968 
L 315.82413 188.59968 
L 315.82413 216.09792 
L 175.46853 216.09792 
z
" clip-path="url(#p3cb8474823)" style="fill: #0173b2; stroke: #ffffff; stroke-width: 0.6; stroke-linejoin: miter"/>
   </g>
   <g id="patch_15">
    <path d="M 315.82413 188.59968 
L 481.69893 188.59968 
L 481.69893 216.09792 
L 315.82413 216.09792 
z
" clip-path="url(#p3cb8474823)" style="fill: #949494; stroke: #ffffff; stroke-width: 0.6; stroke-linejoin: miter"/>
   </g>
   <g id="patch_16">
    <path d="M 481.69893 188.59968 
L 486.25593 188.59968 
L 486.25593 216.09792 
L 481.69893 216.09792 
z
" clip-path="url(#p3cb8474823)" style="fill: #22221f; stroke: #ffffff; stroke-width: 0.6; stroke-linejoin: miter"/>
   </g>
   <g id="patch_17">
    <path d="M 486.25593 188.59968 
L 722.30853 188.59968 
L 722.30853 216.09792 
L 486.25593 216.09792 
z
" clip-path="url(#p3cb8474823)" style="fill: #de8f05; stroke: #ffffff; stroke-width: 0.6; stroke-linejoin: miter"/>
   </g>
   <g id="patch_18">
    <path d="M 175.46853 232.95168 
L 262.05153 232.95168 
L 262.05153 260.44992 
L 175.46853 260.44992 
z
" clip-path="url(#p3cb8474823)" style="fill: #0173b2; stroke: #ffffff; stroke-width: 0.6; stroke-linejoin: miter"/>
   </g>
   <g id="patch_19">
    <path d="M 262.05153 232.95168 
L 399.67293 232.95168 
L 399.67293 260.44992 
L 262.05153 260.44992 
z
" clip-path="url(#p3cb8474823)" style="fill: #949494; stroke: #ffffff; stroke-width: 0.6; stroke-linejoin: miter"/>
   </g>
   <g id="patch_20">
    <path d="M 399.67293 232.95168 
L 406.96413 232.95168 
L 406.96413 260.44992 
L 399.67293 260.44992 
z
" clip-path="url(#p3cb8474823)" style="fill: #22221f; stroke: #ffffff; stroke-width: 0.6; stroke-linejoin: miter"/>
   </g>
   <g id="patch_21">
    <path d="M 406.96413 232.95168 
L 722.30853 232.95168 
L 722.30853 260.44992 
L 406.96413 260.44992 
z
" clip-path="url(#p3cb8474823)" style="fill: #de8f05; stroke: #ffffff; stroke-width: 0.6; stroke-linejoin: miter"/>
   </g>
   <g id="patch_22">
    <path d="M 175.46853 277.30368 
L 231.51963 277.30368 
L 231.51963 304.80192 
L 175.46853 304.80192 
z
" clip-path="url(#p3cb8474823)" style="fill: #0173b2; stroke: #ffffff; stroke-width: 0.6; stroke-linejoin: miter"/>
   </g>
   <g id="patch_23">
    <path d="M 231.51963 277.30368 
L 306.71013 277.30368 
L 306.71013 304.80192 
L 231.51963 304.80192 
z
" clip-path="url(#p3cb8474823)" style="fill: #949494; stroke: #ffffff; stroke-width: 0.6; stroke-linejoin: miter"/>
   </g>
   <g id="patch_24">
    <path d="M 306.71013 277.30368 
L 319.46973 277.30368 
L 319.46973 304.80192 
L 306.71013 304.80192 
z
" clip-path="url(#p3cb8474823)" style="fill: #22221f; stroke: #ffffff; stroke-width: 0.6; stroke-linejoin: miter"/>
   </g>
   <g id="patch_25">
    <path d="M 319.46973 277.30368 
L 722.30853 277.30368 
L 722.30853 304.80192 
L 319.46973 304.80192 
z
" clip-path="url(#p3cb8474823)" style="fill: #de8f05; stroke: #ffffff; stroke-width: 0.6; stroke-linejoin: miter"/>
   </g>
   <g id="patch_26">
    <path d="M 63.64652 29.376 
Q 58.72496 29.376 58.72496 51.552 
Q 58.72496 73.728 53.8034 73.728 
Q 58.72496 73.728 58.72496 95.904 
Q 58.72496 118.08 63.64652 118.08 
" style="fill: none; stroke: #6d6c66; stroke-width: 1.1"/>
   </g>
   <g id="patch_27">
    <path d="M 63.64652 202.3488 
Q 58.72496 202.3488 58.72496 224.5248 
Q 58.72496 246.7008 53.8034 246.7008 
Q 58.72496 246.7008 58.72496 268.8768 
Q 58.72496 291.0528 63.64652 291.0528 
" style="fill: none; stroke: #6d6c66; stroke-width: 1.1"/>
   </g>
   <g id="line2d_19">
    <path d="M 175.46853 160.2144 
L 722.30853 160.2144 
" clip-path="url(#p3cb8474823)" style="fill: none; stroke: #e6e5e1; stroke-linecap: square"/>
   </g>
   <g id="patch_28">
    <path d="M 175.46853 313.2288 
L 175.46853 7.2 
" style="fill: none; stroke: #e6e5e1; stroke-width: 0.8; stroke-linejoin: miter; stroke-linecap: square"/>
   </g>
   <g id="patch_29">
    <path d="M 175.46853 313.2288 
L 722.30853 313.2288 
" style="fill: none; stroke: #e6e5e1; stroke-width: 0.8; stroke-linejoin: miter; stroke-linecap: square"/>
   </g>
   <g id="text_14">
    <!-- 26 -->
    <g style="fill: #ffffff" transform="translate(241.605305 31.584008) scale(0.085 -0.085)">
     <use xlink:href="#DejaVuSans-15"/>
     <use xlink:href="#DejaVuSans-19" transform="translate(63.625 0)"/>
    </g>
   </g>
   <g id="text_15">
    <!-- 43 -->
    <g style="fill: #22221f" transform="translate(430.492955 31.584008) scale(0.085 -0.085)">
     <defs>
      <path id="DejaVuSans-16" d="M 2597 2516 
Q 3050 2419 3304 2112 
Q 3559 1806 3559 1356 
Q 3559 666 3084 287 
Q 2609 -91 1734 -91 
Q 1441 -91 1130 -33 
Q 819 25 488 141 
L 488 750 
Q 750 597 1062 519 
Q 1375 441 1716 441 
Q 2309 441 2620 675 
Q 2931 909 2931 1356 
Q 2931 1769 2642 2001 
Q 2353 2234 1838 2234 
L 1294 2234 
L 1294 2753 
L 1863 2753 
Q 2328 2753 2575 2939 
Q 2822 3125 2822 3475 
Q 2822 3834 2567 4026 
Q 2313 4219 1838 4219 
Q 1578 4219 1281 4162 
Q 984 4106 628 3988 
L 628 4550 
Q 988 4650 1302 4700 
Q 1616 4750 1894 4750 
Q 2613 4750 3031 4423 
Q 3450 4097 3450 3541 
Q 3450 3153 3228 2886 
Q 3006 2619 2597 2516 
z
" transform="scale(0.015625)"/>
     </defs>
     <use xlink:href="#DejaVuSans-17"/>
     <use xlink:href="#DejaVuSans-16" transform="translate(63.625 0)"/>
    </g>
   </g>
   <g id="text_16">
    <!-- 26 -->
    <g style="fill: #ffffff" transform="translate(646.494755 31.584008) scale(0.085 -0.085)">
     <use xlink:href="#DejaVuSans-15"/>
     <use xlink:href="#DejaVuSans-19" transform="translate(63.625 0)"/>
    </g>
   </g>
   <g id="text_17">
    <!-- 25 -->
    <g style="fill: #ffffff" transform="translate(239.326805 75.936008) scale(0.085 -0.085)">
     <defs>
      <path id="DejaVuSans-18" d="M 691 4666 
L 3169 4666 
L 3169 4134 
L 1269 4134 
L 1269 2991 
Q 1406 3038 1543 3061 
Q 1681 3084 1819 3084 
Q 2600 3084 3056 2656 
Q 3513 2228 3513 1497 
Q 3513 744 3044 326 
Q 2575 -91 1722 -91 
Q 1428 -91 1123 -41 
Q 819 9 494 109 
L 494 744 
Q 775 591 1075 516 
Q 1375 441 1709 441 
Q 2250 441 2565 725 
Q 2881 1009 2881 1497 
Q 2881 1984 2565 2268 
Q 2250 2553 1709 2553 
Q 1456 2553 1204 2497 
Q 953 2441 691 2322 
L 691 4666 
z
" transform="scale(0.015625)"/>
     </defs>
     <use xlink:href="#DejaVuSans-15"/>
     <use xlink:href="#DejaVuSans-18" transform="translate(63.625 0)"/>
    </g>
   </g>
   <g id="text_18">
    <!-- 37 -->
    <g style="fill: #22221f" transform="translate(409.302905 75.936008) scale(0.085 -0.085)">
     <defs>
      <path id="DejaVuSans-1a" d="M 525 4666 
L 3525 4666 
L 3525 4397 
L 1831 0 
L 1172 0 
L 2766 4134 
L 525 4134 
L 525 4666 
z
" transform="scale(0.015625)"/>
     </defs>
     <use xlink:href="#DejaVuSans-16"/>
     <use xlink:href="#DejaVuSans-1a" transform="translate(63.625 0)"/>
    </g>
   </g>
   <g id="text_19">
    <!-- 14 -->
    <g style="fill: #ffffff" transform="translate(548.291405 75.936008) scale(0.085 -0.085)">
     <use xlink:href="#DejaVuSans-14"/>
     <use xlink:href="#DejaVuSans-17" transform="translate(63.625 0)"/>
    </g>
   </g>
   <g id="text_20">
    <!-- 24 -->
    <g style="fill: #ffffff" transform="translate(651.735305 75.936008) scale(0.085 -0.085)">
     <use xlink:href="#DejaVuSans-15"/>
     <use xlink:href="#DejaVuSans-17" transform="translate(63.625 0)"/>
    </g>
   </g>
   <g id="text_21">
    <!-- 20 -->
    <g style="fill: #ffffff" transform="translate(224.744405 120.288008) scale(0.085 -0.085)">
     <use xlink:href="#DejaVuSans-15"/>
     <use xlink:href="#DejaVuSans-13" transform="translate(63.625 0)"/>
    </g>
   </g>
   <g id="text_22">
    <!-- 46 -->
    <g style="fill: #22221f" transform="translate(404.518055 120.288008) scale(0.085 -0.085)">
     <use xlink:href="#DejaVuSans-17"/>
     <use xlink:href="#DejaVuSans-19" transform="translate(63.625 0)"/>
    </g>
   </g>
   <g id="text_23">
    <!-- 34 -->
    <g style="fill: #ffffff" transform="translate(623.254055 120.288008) scale(0.085 -0.085)">
     <use xlink:href="#DejaVuSans-16"/>
     <use xlink:href="#DejaVuSans-17" transform="translate(63.625 0)"/>
    </g>
   </g>
   <g id="text_24">
    <!-- 26 -->
    <g style="fill: #ffffff" transform="translate(240.238205 204.556808) scale(0.085 -0.085)">
     <use xlink:href="#DejaVuSans-15"/>
     <use xlink:href="#DejaVuSans-19" transform="translate(63.625 0)"/>
    </g>
   </g>
   <g id="text_25">
    <!-- 30 -->
    <g style="fill: #22221f" transform="translate(393.353405 204.556808) scale(0.085 -0.085)">
     <use xlink:href="#DejaVuSans-16"/>
     <use xlink:href="#DejaVuSans-13" transform="translate(63.625 0)"/>
    </g>
   </g>
   <g id="text_26">
    <!-- 43 -->
    <g style="fill: #ffffff" transform="translate(598.874105 204.556808) scale(0.085 -0.085)">
     <use xlink:href="#DejaVuSans-17"/>
     <use xlink:href="#DejaVuSans-16" transform="translate(63.625 0)"/>
    </g>
   </g>
   <g id="text_27">
    <!-- 16 -->
    <g style="fill: #ffffff" transform="translate(213.351905 248.908808) scale(0.085 -0.085)">
     <use xlink:href="#DejaVuSans-14"/>
     <use xlink:href="#DejaVuSans-19" transform="translate(63.625 0)"/>
    </g>
   </g>
   <g id="text_28">
    <!-- 25 -->
    <g style="fill: #22221f" transform="translate(325.454105 248.908808) scale(0.085 -0.085)">
     <use xlink:href="#DejaVuSans-15"/>
     <use xlink:href="#DejaVuSans-18" transform="translate(63.625 0)"/>
    </g>
   </g>
   <g id="text_29">
    <!-- 58 -->
    <g style="fill: #ffffff" transform="translate(559.228205 248.908808) scale(0.085 -0.085)">
     <use xlink:href="#DejaVuSans-18"/>
     <use xlink:href="#DejaVuSans-1b" transform="translate(63.625 0)"/>
    </g>
   </g>
   <g id="text_30">
    <!-- 10 -->
    <g style="fill: #ffffff" transform="translate(198.085955 293.260808) scale(0.085 -0.085)">
     <use xlink:href="#DejaVuSans-14"/>
     <use xlink:href="#DejaVuSans-13" transform="translate(63.625 0)"/>
    </g>
   </g>
   <g id="text_31">
    <!-- 14 -->
    <g style="fill: #22221f" transform="translate(263.706755 293.260808) scale(0.085 -0.085)">
     <use xlink:href="#DejaVuSans-14"/>
     <use xlink:href="#DejaVuSans-17" transform="translate(63.625 0)"/>
    </g>
   </g>
   <g id="text_32">
    <!-- 74 -->
    <g style="fill: #ffffff" transform="translate(515.481005 293.260808) scale(0.085 -0.085)">
     <use xlink:href="#DejaVuSans-1a"/>
     <use xlink:href="#DejaVuSans-17" transform="translate(63.625 0)"/>
    </g>
   </g>
   <g id="text_33">
    <!-- pre AFT -->
    <g style="fill: #6d6c66" transform="translate(12.144453 76.195773) scale(0.095 -0.095)">
     <defs>
      <path id="DejaVuSans-53" d="M 1159 525 
L 1159 -1331 
L 581 -1331 
L 581 3500 
L 1159 3500 
L 1159 2969 
Q 1341 3281 1617 3432 
Q 1894 3584 2278 3584 
Q 2916 3584 3314 3078 
Q 3713 2572 3713 1747 
Q 3713 922 3314 415 
Q 2916 -91 2278 -91 
Q 1894 -91 1617 61 
Q 1341 213 1159 525 
z
M 3116 1747 
Q 3116 2381 2855 2742 
Q 2594 3103 2138 3103 
Q 1681 3103 1420 2742 
Q 1159 2381 1159 1747 
Q 1159 1113 1420 752 
Q 1681 391 2138 391 
Q 2594 391 2855 752 
Q 3116 1113 3116 1747 
z
" transform="scale(0.015625)"/>
      <path id="DejaVuSans-24" d="M 2188 4044 
L 1331 1722 
L 3047 1722 
L 2188 4044 
z
M 1831 4666 
L 2547 4666 
L 4325 0 
L 3669 0 
L 3244 1197 
L 1141 1197 
L 716 0 
L 50 0 
L 1831 4666 
z
" transform="scale(0.015625)"/>
      <path id="DejaVuSans-37" d="M -19 4666 
L 3928 4666 
L 3928 4134 
L 2272 4134 
L 2272 0 
L 1638 0 
L 1638 4134 
L -19 4134 
L -19 4666 
z
" transform="scale(0.015625)"/>
     </defs>
     <use xlink:href="#DejaVuSans-53"/>
     <use xlink:href="#DejaVuSans-55" transform="translate(63.484375 0)"/>
     <use xlink:href="#DejaVuSans-48" transform="translate(102.390625 0)"/>
     <use xlink:href="#DejaVuSans-3" transform="translate(163.921875 0)"/>
     <use xlink:href="#DejaVuSans-24" transform="translate(195.703125 0)"/>
     <use xlink:href="#DejaVuSans-29" transform="translate(264.109375 0)"/>
     <use xlink:href="#DejaVuSans-37" transform="translate(319.875 0)"/>
    </g>
   </g>
   <g id="text_34">
    <!-- post AFT -->
    <g style="fill: #6d6c66" transform="translate(7.2 249.168573) scale(0.095 -0.095)">
     <use xlink:href="#DejaVuSans-53"/>
     <use xlink:href="#DejaVuSans-52" transform="translate(63.484375 0)"/>
     <use xlink:href="#DejaVuSans-56" transform="translate(124.671875 0)"/>
     <use xlink:href="#DejaVuSans-57" transform="translate(176.765625 0)"/>
     <use xlink:href="#DejaVuSans-3" transform="translate(215.96875 0)"/>
     <use xlink:href="#DejaVuSans-24" transform="translate(247.75 0)"/>
     <use xlink:href="#DejaVuSans-29" transform="translate(316.15625 0)"/>
     <use xlink:href="#DejaVuSans-37" transform="translate(371.921875 0)"/>
    </g>
   </g>
   <g id="legend_1">
    <g id="patch_30">
     <path d="M 218.02853 367.121216 
L 235.02853 367.121216 
L 235.02853 361.171216 
L 218.02853 361.171216 
z
" style="fill: #0173b2"/>
    </g>
    <g id="text_35">
     <!-- chose Charter -->
     <g transform="translate(241.82853 367.121216) scale(0.085 -0.085)">
      <use xlink:href="#DejaVuSans-46"/>
      <use xlink:href="#DejaVuSans-4b" transform="translate(54.984375 0)"/>
      <use xlink:href="#DejaVuSans-52" transform="translate(118.359375 0)"/>
      <use xlink:href="#DejaVuSans-56" transform="translate(179.546875 0)"/>
      <use xlink:href="#DejaVuSans-48" transform="translate(231.640625 0)"/>
      <use xlink:href="#DejaVuSans-3" transform="translate(293.171875 0)"/>
      <use xlink:href="#DejaVuSans-26" transform="translate(324.953125 0)"/>
      <use xlink:href="#DejaVuSans-4b" transform="translate(394.78125 0)"/>
      <use xlink:href="#DejaVuSans-44" transform="translate(458.15625 0)"/>
      <use xlink:href="#DejaVuSans-55" transform="translate(519.4375 0)"/>
      <use xlink:href="#DejaVuSans-57" transform="translate(560.546875 0)"/>
      <use xlink:href="#DejaVuSans-48" transform="translate(599.75 0)"/>
      <use xlink:href="#DejaVuSans-55" transform="translate(661.28125 0)"/>
     </g>
    </g>
    <g id="patch_31">
     <path d="M 318.531733 367.121216 
L 335.531733 367.121216 
L 335.531733 361.171216 
L 318.531733 361.171216 
z
" style="fill: #949494"/>
    </g>
    <g id="text_36">
     <!-- chose another crew -->
     <g transform="translate(342.331733 367.121216) scale(0.085 -0.085)">
      <defs>
       <path id="DejaVuSans-5a" d="M 269 3500 
L 844 3500 
L 1563 769 
L 2278 3500 
L 2956 3500 
L 3675 769 
L 4391 3500 
L 4966 3500 
L 4050 0 
L 3372 0 
L 2619 2869 
L 1863 0 
L 1184 0 
L 269 3500 
z
" transform="scale(0.015625)"/>
      </defs>
      <use xlink:href="#DejaVuSans-46"/>
      <use xlink:href="#DejaVuSans-4b" transform="translate(54.984375 0)"/>
      <use xlink:href="#DejaVuSans-52" transform="translate(118.359375 0)"/>
      <use xlink:href="#DejaVuSans-56" transform="translate(179.546875 0)"/>
      <use xlink:href="#DejaVuSans-48" transform="translate(231.640625 0)"/>
      <use xlink:href="#DejaVuSans-3" transform="translate(293.171875 0)"/>
      <use xlink:href="#DejaVuSans-44" transform="translate(324.953125 0)"/>
      <use xlink:href="#DejaVuSans-51" transform="translate(386.234375 0)"/>
      <use xlink:href="#DejaVuSans-52" transform="translate(449.609375 0)"/>
      <use xlink:href="#DejaVuSans-57" transform="translate(510.796875 0)"/>
      <use xlink:href="#DejaVuSans-4b" transform="translate(550 0)"/>
      <use xlink:href="#DejaVuSans-48" transform="translate(613.375 0)"/>
      <use xlink:href="#DejaVuSans-55" transform="translate(674.90625 0)"/>
      <use xlink:href="#DejaVuSans-3" transform="translate(716.015625 0)"/>
      <use xlink:href="#DejaVuSans-46" transform="translate(747.796875 0)"/>
      <use xlink:href="#DejaVuSans-55" transform="translate(802.78125 0)"/>
      <use xlink:href="#DejaVuSans-48" transform="translate(841.6875 0)"/>
      <use xlink:href="#DejaVuSans-5a" transform="translate(903.21875 0)"/>
     </g>
    </g>
    <g id="patch_32">
     <path d="M 443.056733 367.121216 
L 460.056733 367.121216 
L 460.056733 361.171216 
L 443.056733 361.171216 
z
" style="fill: #22221f"/>
    </g>
    <g id="text_37">
     <!-- malformed answer -->
     <g transform="translate(466.856733 367.121216) scale(0.085 -0.085)">
      <use xlink:href="#DejaVuSans-50"/>
      <use xlink:href="#DejaVuSans-44" transform="translate(97.40625 0)"/>
      <use xlink:href="#DejaVuSans-4f" transform="translate(158.6875 0)"/>
      <use xlink:href="#DejaVuSans-49" transform="translate(186.46875 0)"/>
      <use xlink:href="#DejaVuSans-52" transform="translate(221.671875 0)"/>
      <use xlink:href="#DejaVuSans-55" transform="translate(282.859375 0)"/>
      <use xlink:href="#DejaVuSans-50" transform="translate(322.21875 0)"/>
      <use xlink:href="#DejaVuSans-48" transform="translate(419.625 0)"/>
      <use xlink:href="#DejaVuSans-47" transform="translate(481.15625 0)"/>
      <use xlink:href="#DejaVuSans-3" transform="translate(544.640625 0)"/>
      <use xlink:href="#DejaVuSans-44" transform="translate(576.421875 0)"/>
      <use xlink:href="#DejaVuSans-51" transform="translate(637.703125 0)"/>
      <use xlink:href="#DejaVuSans-56" transform="translate(701.078125 0)"/>
      <use xlink:href="#DejaVuSans-5a" transform="translate(753.171875 0)"/>
      <use xlink:href="#DejaVuSans-48" transform="translate(834.953125 0)"/>
      <use xlink:href="#DejaVuSans-55" transform="translate(896.484375 0)"/>
     </g>
    </g>
    <g id="patch_33">
     <path d="M 563.552202 367.121216 
L 580.552202 367.121216 
L 580.552202 361.171216 
L 563.552202 361.171216 
z
" style="fill: #de8f05"/>
    </g>
    <g id="text_38">
     <!-- chose coin / cheapest -->
     <g transform="translate(587.352202 367.121216) scale(0.085 -0.085)">
      <defs>
       <path id="DejaVuSans-12" d="M 1625 4666 
L 2156 4666 
L 531 -594 
L 0 -594 
L 1625 4666 
z
" transform="scale(0.015625)"/>
      </defs>
      <use xlink:href="#DejaVuSans-46"/>
      <use xlink:href="#DejaVuSans-4b" transform="translate(54.984375 0)"/>
      <use xlink:href="#DejaVuSans-52" transform="translate(118.359375 0)"/>
      <use xlink:href="#DejaVuSans-56" transform="translate(179.546875 0)"/>
      <use xlink:href="#DejaVuSans-48" transform="translate(231.640625 0)"/>
      <use xlink:href="#DejaVuSans-3" transform="translate(293.171875 0)"/>
      <use xlink:href="#DejaVuSans-46" transform="translate(324.953125 0)"/>
      <use xlink:href="#DejaVuSans-52" transform="translate(379.9375 0)"/>
      <use xlink:href="#DejaVuSans-4c" transform="translate(441.125 0)"/>
      <use xlink:href="#DejaVuSans-51" transform="translate(468.90625 0)"/>
      <use xlink:href="#DejaVuSans-3" transform="translate(532.28125 0)"/>
      <use xlink:href="#DejaVuSans-12" transform="translate(564.0625 0)"/>
      <use xlink:href="#DejaVuSans-3" transform="translate(597.75 0)"/>
      <use xlink:href="#DejaVuSans-46" transform="translate(629.53125 0)"/>
      <use xlink:href="#DejaVuSans-4b" transform="translate(684.515625 0)"/>
      <use xlink:href="#DejaVuSans-48" transform="translate(747.890625 0)"/>
      <use xlink:href="#DejaVuSans-44" transform="translate(809.421875 0)"/>
      <use xlink:href="#DejaVuSans-53" transform="translate(870.703125 0)"/>
      <use xlink:href="#DejaVuSans-48" transform="translate(934.1875 0)"/>
      <use xlink:href="#DejaVuSans-56" transform="translate(995.71875 0)"/>
      <use xlink:href="#DejaVuSans-57" transform="translate(1047.8125 0)"/>
     </g>
    </g>
   </g>
  </g>
 </g>
 <defs>
  <clipPath id="p3cb8474823">
   <rect x="175.46853" y="7.2" width="546.84" height="306.0288"/>
  </clipPath>
 </defs>
</svg>
